<?xml version="1.0" standalone="no"?>
<!DOCTYPE svg PUBLIC "-//W3C//DTD SVG 20010904//EN"
 "http://www.w3.org/TR/2001/REC-SVG-20010904/DTD/svg10.dtd">
<svg version="1.0" xmlns="http://www.w3.org/2000/svg"
 width="1080.000000pt" height="1080.000000pt" viewBox="0 0 1080.000000 1080.000000"
 preserveAspectRatio="xMidYMid meet">
<metadata>
Created by potrace 1.14, written by Peter Selinger 2001-2017
</metadata>
<g transform="translate(0.000000,1080.000000) scale(0.100000,-0.100000)"
fill="#000000" stroke="none">
<path d="M5308 10775 c-1 -1 -34 -6 -73 -9 -38 -4 -88 -9 -110 -11 -22 -2 -69
-7 -105 -10 -36 -4 -78 -8 -95 -10 -30 -4 -122 -13 -200 -20 -22 -2 -71 -7
-110 -11 -38 -4 -81 -8 -95 -9 -125 -10 -187 -22 -297 -56 -70 -22 -146 -45
-168 -50 -22 -5 -47 -12 -55 -16 -8 -3 -21 -7 -29 -9 -7 -1 -47 -14 -90 -27
-42 -14 -103 -33 -136 -42 -33 -10 -88 -27 -123 -37 -34 -11 -68 -21 -75 -22
-6 -2 -19 -6 -27 -9 -40 -15 -87 -29 -110 -33 -14 -2 -68 -26 -120 -52 -127
-63 -284 -146 -290 -152 -3 -3 -39 -22 -80 -44 -41 -21 -97 -50 -125 -65 -27
-14 -53 -30 -57 -36 -4 -5 -8 -7 -8 -2 0 4 -17 -3 -37 -16 -21 -13 -67 -38
-103 -57 -36 -18 -90 -46 -120 -62 -30 -16 -118 -81 -195 -144 -77 -63 -153
-125 -169 -137 -15 -12 -36 -29 -45 -38 -9 -8 -38 -33 -66 -55 -61 -48 -73
-58 -160 -131 -79 -66 -89 -74 -107 -88 -53 -41 -136 -113 -149 -130 -46 -55
-59 -71 -72 -85 -7 -8 -31 -37 -53 -65 -21 -27 -43 -55 -49 -61 -5 -6 -26 -30
-45 -55 -19 -24 -45 -54 -57 -67 -13 -12 -23 -27 -23 -32 0 -4 -3 -10 -8 -12
-6 -2 -134 -157 -270 -325 -18 -23 -44 -54 -58 -70 -13 -15 -33 -46 -44 -68
-11 -22 -39 -76 -63 -120 -23 -44 -69 -129 -101 -190 -32 -60 -66 -123 -76
-140 -9 -16 -46 -84 -80 -150 -35 -66 -72 -136 -83 -155 -56 -99 -101 -215
-142 -370 -2 -8 -38 -127 -80 -265 -172 -561 -155 -494 -169 -670 -3 -27 -7
-70 -10 -95 -5 -41 -13 -119 -21 -210 -12 -135 -15 -170 -20 -205 -3 -22 -7
-65 -10 -95 -2 -30 -8 -86 -12 -125 -10 -86 -9 -241 0 -315 4 -30 9 -84 12
-120 3 -36 7 -78 9 -95 3 -16 8 -66 12 -110 3 -44 8 -93 10 -110 2 -16 6 -57
9 -90 5 -56 10 -106 20 -200 3 -22 7 -65 9 -95 6 -60 23 -127 84 -325 22 -71
83 -270 135 -441 96 -316 107 -343 241 -586 13 -24 49 -92 81 -153 32 -60 66
-123 75 -140 15 -27 91 -168 157 -295 24 -47 49 -84 71 -107 7 -7 10 -13 6
-13 -4 0 0 -6 9 -13 9 -6 29 -28 44 -48 30 -40 294 -361 303 -369 3 -3 21 -25
40 -50 19 -25 43 -54 53 -65 10 -11 46 -55 79 -97 34 -43 65 -78 70 -78 4 0 8
-6 8 -13 0 -7 14 -23 31 -37 17 -14 36 -29 43 -35 6 -5 38 -32 71 -59 33 -28
68 -58 78 -68 10 -10 21 -18 25 -18 4 0 28 -19 54 -43 26 -23 57 -50 70 -59
30 -22 83 -65 128 -104 19 -16 85 -70 145 -119 127 -102 120 -97 162 -133 17
-15 66 -45 110 -68 43 -23 98 -52 123 -66 25 -14 99 -53 165 -88 66 -35 134
-71 150 -80 17 -9 80 -43 140 -75 61 -32 144 -77 185 -99 41 -23 91 -46 110
-53 71 -23 266 -82 295 -89 17 -4 35 -9 40 -13 6 -3 15 -7 20 -8 73 -17 100
-25 109 -31 6 -3 16 -7 21 -9 6 -1 35 -9 65 -18 30 -9 75 -23 100 -30 25 -8
83 -25 130 -40 175 -54 216 -65 270 -70 78 -6 145 -13 220 -21 36 -3 79 -8 95
-9 93 -8 183 -17 205 -21 14 -2 63 -6 110 -10 47 -3 92 -8 99 -10 25 -8 182
-19 271 -19 76 0 181 8 250 19 14 3 61 7 105 11 44 3 96 8 115 10 19 3 64 7
100 10 36 3 83 8 105 10 22 2 63 6 90 9 50 6 110 11 215 21 30 3 93 17 139 31
47 15 89 27 95 28 6 1 16 4 21 7 6 4 35 12 65 20 30 7 60 16 65 20 6 3 24 9
40 13 17 4 75 21 130 38 55 18 105 33 110 34 6 1 50 14 99 29 49 15 94 28 100
30 6 1 18 5 26 8 19 7 91 30 108 34 6 2 20 5 30 7 9 3 18 5 20 6 1 2 5 3 10 4
4 1 23 10 42 20 53 28 173 93 285 153 55 30 116 61 135 71 19 9 37 19 40 22 3
3 30 18 60 33 30 16 102 54 160 84 58 31 129 69 158 84 49 26 168 113 202 149
8 9 35 31 60 50 25 19 52 41 61 49 9 9 30 27 49 41 18 14 42 33 54 43 11 10
36 31 55 45 19 15 39 32 45 37 6 6 52 43 101 84 107 87 174 142 189 156 6 6
21 18 33 26 12 8 68 71 124 140 56 68 105 126 110 127 5 2 9 8 9 14 0 5 6 15
13 22 13 14 46 53 146 176 34 41 66 81 72 88 6 8 47 57 91 110 44 54 93 113
109 132 16 19 29 40 29 47 0 6 4 13 8 15 4 2 24 35 44 73 20 39 48 93 63 120
66 123 106 197 161 300 32 61 78 146 102 190 66 121 131 257 136 285 3 14 19
68 35 120 43 139 142 463 146 480 2 8 16 53 30 100 15 47 28 90 29 95 1 6 12
40 23 76 12 36 24 99 28 140 4 41 9 88 11 104 2 17 6 57 9 90 3 33 8 83 11
110 3 28 7 75 10 105 2 30 6 71 8 90 4 31 12 115 21 220 2 19 6 58 9 85 10 86
18 170 17 180 -1 16 -10 116 -16 170 -3 28 -7 75 -10 105 -2 30 -7 73 -9 95
-3 22 -8 72 -11 110 -4 39 -8 81 -10 95 -2 14 -7 57 -10 95 -3 39 -8 86 -10
105 -2 19 -7 64 -10 100 -16 178 -13 161 -60 310 -19 63 -38 123 -40 133 -2
10 -18 64 -35 120 -104 339 -134 437 -161 527 -24 83 -77 200 -91 200 -4 0 -8
8 -8 18 0 10 -4 22 -9 28 -5 5 -32 54 -61 109 -73 140 -111 208 -123 223 -5 6
-6 12 -3 12 4 0 -1 12 -12 28 -11 15 -28 45 -39 67 -37 76 -187 349 -202 368
-9 11 -23 27 -32 36 -9 9 -78 93 -154 186 -75 94 -144 177 -152 185 -7 8 -30
36 -50 63 -19 26 -40 47 -44 47 -5 0 -9 4 -9 10 0 10 -18 33 -82 104 -21 22
-38 44 -38 48 0 4 -10 17 -23 30 -12 13 -31 34 -42 48 -11 14 -45 45 -75 70
-30 25 -57 47 -60 50 -3 3 -27 24 -55 45 -27 22 -55 45 -61 50 -6 6 -28 24
-49 40 -21 17 -43 35 -49 40 -6 6 -74 62 -151 125 -77 63 -142 117 -145 120
-3 3 -21 17 -42 32 -20 15 -42 33 -50 41 -7 7 -33 29 -58 48 -46 37 -73 53
-265 154 -146 77 -147 78 -167 94 -10 8 -18 11 -18 6 0 -4 -6 -3 -12 2 -14 11
-79 46 -243 133 -55 29 -136 73 -179 97 -44 24 -116 54 -160 67 -45 14 -148
45 -231 71 -82 25 -157 48 -165 50 -8 2 -15 4 -15 5 0 1 -7 3 -15 5 -8 1 -37
10 -65 18 -131 40 -393 120 -420 127 -37 11 -86 17 -195 26 -47 3 -94 8 -105
10 -11 2 -54 6 -95 9 -41 3 -91 8 -110 10 -19 2 -60 7 -90 10 -30 3 -80 8
-110 11 -30 4 -66 6 -79 5 -12 0 -27 2 -33 5 -14 9 -341 27 -350 19z"/>
</g>
</svg>
